<?xml version="1.0" standalone="no"?>
<!DOCTYPE svg PUBLIC "-//W3C//DTD SVG 20010904//EN"
 "http://www.w3.org/TR/2001/REC-SVG-20010904/DTD/svg10.dtd">
<svg version="1.0" xmlns="http://www.w3.org/2000/svg"
 width="3125.000000pt" height="424.000000pt" viewBox="0 0 3125.000000 424.000000"
 preserveAspectRatio="xMidYMid meet">
<metadata>
Created by potrace 1.16, written by Peter Selinger 2001-2019
</metadata>
<g transform="translate(0.000000,424.000000) scale(0.100000,-0.100000)"
fill="#000000" stroke="none">
<path d="M25865 4128 c-175 -134 -498 -348 -674 -447 -252 -140 -503 -243
-718 -292 -115 -26 -336 -36 -440 -19 -372 59 -637 352 -738 814 -5 26 -9 28
-37 22 -17 -3 -33 -8 -36 -10 -8 -9 47 -207 82 -293 122 -298 329 -497 601
-579 74 -22 116 -27 237 -31 166 -6 259 4 424 47 293 75 623 235 999 485 129
85 432 304 475 342 6 6 -23 56 -35 59 -5 1 -68 -43 -140 -98z"/>
<path d="M27640 4054 c-180 -180 -420 -406 -570 -534 -1257 -1079 -2481 -1478
-3569 -1165 -396 114 -837 370 -1074 624 l-48 51 -10 -28 c-5 -15 -11 -32 -14
-39 -5 -16 153 -166 265 -250 314 -236 682 -400 1070 -478 196 -39 297 -49
532 -49 l228 -1 -248 -124 c-918 -460 -1691 -759 -2137 -826 -141 -21 -211
-19 -315 9 -22 6 -27 3 -37 -24 -14 -37 -5 -43 81 -59 331 -61 1081 182 2181
706 132 63 339 165 460 228 207 106 226 114 320 129 575 97 1210 379 1812 808
113 80 145 97 270 144 264 100 643 207 944 268 541 110 1081 135 1529 70 399
-58 788 -206 1043 -397 145 -108 283 -175 431 -208 54 -12 65 -20 150 -103 87
-87 207 -235 229 -283 12 -28 24 -28 55 -5 l24 18 -60 90 c-33 49 -96 128
-141 175 l-81 87 31 6 c18 3 41 6 52 6 24 0 167 37 185 49 9 6 10 15 1 39 -6
18 -12 32 -13 32 -2 0 -28 -9 -59 -19 -96 -34 -206 -45 -297 -32 -159 24 -264
70 -440 196 -255 183 -507 493 -731 900 -45 83 -84 151 -85 153 -1 2 -16 -4
-33 -13 l-31 -15 42 -83 c24 -45 44 -85 46 -89 2 -3 -30 4 -71 17 -297 95
-860 94 -1607 0 -107 -14 -208 -28 -225 -31 l-30 -6 25 28 c13 16 51 57 84 92
l60 62 -24 25 -25 25 -175 -176z m1689 1 c130 -19 244 -49 295 -78 30 -17 57
-52 121 -154 88 -141 222 -324 299 -410 l47 -52 -108 45 c-206 87 -467 154
-743 191 -189 25 -727 25 -945 0 -309 -36 -578 -86 -872 -162 -144 -38 -440
-126 -509 -152 -10 -4 24 29 76 72 151 125 251 215 469 419 177 166 209 192
245 198 165 30 675 83 971 102 133 8 553 -4 654 -19z"/>
<path d="M5645 4201 c-16 -19 -16 -21 3 -48 38 -53 327 -329 437 -416 274
-219 583 -402 886 -527 333 -137 650 -208 1043 -233 l39 -2 -114 -87 c-137
-104 -343 -274 -459 -379 -47 -42 -109 -99 -139 -125 -268 -242 -597 -575
-913 -924 -314 -346 -774 -913 -1046 -1286 -79 -110 -80 -112 -61 -130 10 -9
21 -15 23 -13 2 2 55 74 118 159 418 569 951 1196 1448 1703 1037 1059 1988
1671 2760 1778 132 18 373 16 490 -5 112 -20 301 -81 391 -126 475 -239 856
-755 1135 -1537 30 -85 84 -252 120 -370 35 -118 81 -246 100 -285 60 -119
150 -197 228 -198 22 0 27 4 22 16 -3 9 -6 17 -6 20 0 2 -25 15 -55 29 -31 15
-67 42 -85 65 -49 62 -104 193 -155 370 -304 1058 -771 1732 -1369 1976 -609
248 -1381 71 -2236 -514 l-95 -64 -155 5 c-768 29 -1551 395 -2168 1014 -84
84 -156 153 -161 153 -4 0 -16 -9 -26 -19z"/>
<path d="M12429 4204 c-12 -14 -9 -20 16 -40 57 -45 282 -174 445 -253 516
-254 1069 -408 1690 -473 165 -17 724 -17 890 0 741 77 1413 286 2098 655 83
45 152 86 152 92 0 5 -5 17 -10 25 -8 13 -15 12 -52 -9 -735 -405 -1385 -619
-2153 -708 -186 -21 -738 -24 -915 -5 -419 46 -739 114 -1105 237 -324 108
-679 272 -927 428 -58 37 -108 67 -111 67 -2 0 -11 -7 -18 -16z"/>
<path d="M22057 4163 c-46 -104 -61 -171 -60 -278 0 -159 45 -296 148 -451 53
-79 188 -234 205 -234 4 0 13 14 19 31 10 30 8 34 -53 105 -171 195 -250 371
-248 554 0 90 26 194 64 259 l20 35 -24 18 c-13 9 -28 18 -34 18 -6 0 -23 -26
-37 -57z"/>
<path d="M20783 4194 c-5 -14 3 -145 21 -356 24 -261 113 -641 205 -873 32
-80 44 -122 37 -126 -25 -15 -259 -89 -356 -113 -388 -96 -770 -100 -1118 -12
-394 100 -745 297 -1047 587 -64 62 -116 105 -120 99 -14 -22 164 -196 330
-320 243 -183 539 -324 825 -393 190 -47 318 -61 540 -61 294 0 516 37 818
136 84 28 155 49 156 47 2 -2 16 -26 30 -54 83 -156 125 -224 199 -325 73 -99
291 -324 364 -375 23 -17 79 -61 123 -98 l80 -68 11 27 c5 15 8 34 7 43 -2 8
-59 60 -128 115 -484 390 -737 851 -855 1560 -26 158 -55 431 -55 523 0 52 0
53 -30 53 -19 0 -33 -6 -37 -16z"/>
<path d="M30162 4201 c-34 -21 146 -350 281 -515 192 -232 403 -359 644 -387
110 -13 143 -8 143 24 0 21 -4 22 -84 24 -304 6 -593 221 -823 611 -30 52 -71
130 -91 173 -35 78 -44 87 -70 70z"/>
<path d="M11980 3123 c0 -32 117 -492 185 -728 230 -799 500 -1426 771 -1791
71 -96 242 -269 306 -309 l46 -29 -72 -32 c-138 -61 -268 -99 -439 -128 -34
-6 -36 -9 -26 -27 6 -11 8 -27 5 -35 -3 -8 -4 -14 -2 -14 22 0 198 35 256 51
153 43 355 133 537 240 48 29 204 129 346 221 433 283 809 503 1302 761 960
503 1784 805 2606 956 703 130 1236 100 1693 -96 311 -133 593 -376 774 -669
139 -223 208 -410 351 -945 39 -145 90 -324 113 -396 36 -115 44 -133 62 -133
52 1 53 11 12 137 -21 65 -44 141 -51 168 -94 351 -158 581 -164 594 -5 9 -16
44 -25 79 -35 139 -145 389 -237 539 -95 156 -268 349 -405 455 -547 421
-1257 518 -2274 312 -720 -146 -1434 -405 -2254 -819 -673 -339 -1017 -536
-1596 -915 -225 -147 -431 -270 -453 -270 -7 0 -39 18 -72 39 -415 271 -846
1187 -1175 2499 -51 202 -63 238 -89 268 -23 26 -31 30 -31 17z"/>
<path d="M28275 2945 c-785 -74 -1629 -295 -2585 -677 -1171 -468 -2559 -1214
-3968 -2131 l-133 -87 17 -25 c9 -14 22 -25 30 -25 7 0 84 46 171 103 397 259
983 618 1408 862 2005 1151 3705 1790 5085 1910 319 27 733 19 1015 -20 604
-85 1114 -317 1480 -672 141 -136 281 -321 351 -466 26 -52 31 -57 54 -52 44
11 44 21 1 105 -153 300 -436 586 -782 791 -323 191 -688 309 -1159 375 -163
23 -779 28 -985 9z"/>
<path d="M28240 2580 c-513 -48 -1000 -154 -1560 -340 -1112 -369 -2340 -1008
-3745 -1946 -398 -267 -362 -238 -345 -269 7 -14 19 -25 26 -25 8 0 130 78
271 174 1903 1282 3554 2048 4906 2276 330 56 443 65 807 65 358 0 448 -8 705
-60 527 -106 965 -334 1315 -685 239 -238 454 -569 544 -837 12 -37 28 -68 34
-67 7 1 21 2 32 3 27 2 26 24 -6 113 -41 116 -139 307 -223 435 -382 583 -957
963 -1676 1108 -230 46 -352 57 -680 60 -170 2 -353 -1 -405 -5z"/>
<path d="M28100 1694 c-25 -2 -101 -8 -170 -14 -882 -75 -2016 -471 -3188
-1115 -289 -158 -853 -499 -852 -515 0 -3 7 -13 14 -23 13 -17 23 -12 153 71
315 202 664 401 1048 598 1582 810 2936 1112 3895 869 398 -101 721 -285 996
-566 226 -232 395 -503 534 -852 26 -65 50 -118 53 -118 4 1 14 1 22 1 22 0
19 21 -16 113 -135 352 -316 647 -541 882 -345 362 -802 580 -1359 650 -119
15 -496 27 -589 19z"/>
<path d="M18260 1034 c-700 -61 -1389 -272 -2634 -806 -419 -180 -416 -178
-416 -195 0 -7 2 -13 5 -13 3 0 168 70 368 156 441 190 657 278 949 388 1070
403 1838 530 2351 390 394 -108 646 -407 709 -841 8 -55 16 -83 25 -83 17 0
16 18 -2 126 -85 487 -381 776 -880 860 -88 14 -385 26 -475 18z"/>
</g>
</svg>
